<mxfile host="65bd71144e" scale="3" border="0">
    <diagram id="LzTGRrPrDBO6Tm46XuKC" name="Page-1">
        <mxGraphModel dx="589" dy="786" grid="0" gridSize="10" guides="1" tooltips="1" connect="1" arrows="1" fold="1" page="0" pageScale="1" pageWidth="1600" pageHeight="1200" math="0" shadow="0">
            <root>
                <mxCell id="0"/>
                <mxCell id="1" parent="0"/>
                <mxCell id="45" style="edgeStyle=none;html=1;exitX=0.5;exitY=1;exitDx=0;exitDy=0;fontSize=14;" edge="1" parent="1" source="36" target="37">
                    <mxGeometry relative="1" as="geometry"/>
                </mxCell>
                <mxCell id="36" value="Device Start&lt;div&gt;UART BOOT MODE&lt;/div&gt;" style="rounded=1;whiteSpace=wrap;html=1;flipV=0;flipH=1;fontSize=14;" vertex="1" parent="1">
                    <mxGeometry x="494" y="51" width="120" height="60" as="geometry"/>
                </mxCell>
                <mxCell id="46" style="edgeStyle=none;html=1;exitX=0.5;exitY=1;exitDx=0;exitDy=0;fontSize=14;" edge="1" parent="1" source="37" target="38">
                    <mxGeometry relative="1" as="geometry"/>
                </mxCell>
                <mxCell id="37" value="ROM Code start flashwrite image" style="rounded=0;whiteSpace=wrap;html=1;flipV=0;flipH=1;fontSize=14;" vertex="1" parent="1">
                    <mxGeometry x="494" y="133" width="120" height="60" as="geometry"/>
                </mxCell>
                <mxCell id="47" style="edgeStyle=none;html=1;exitX=0.5;exitY=1;exitDx=0;exitDy=0;entryX=0.5;entryY=0;entryDx=0;entryDy=0;fontSize=14;" edge="1" parent="1" source="38" target="39">
                    <mxGeometry relative="1" as="geometry"/>
                </mxCell>
                <mxCell id="38" value="Device setup" style="rounded=0;whiteSpace=wrap;html=1;flipV=0;flipH=1;fontSize=14;" vertex="1" parent="1">
                    <mxGeometry x="494" y="215" width="120" height="60" as="geometry"/>
                </mxCell>
                <mxCell id="48" style="edgeStyle=none;html=1;exitX=0.5;exitY=1;exitDx=0;exitDy=0;fontSize=14;" edge="1" parent="1" source="39" target="41">
                    <mxGeometry relative="1" as="geometry"/>
                </mxCell>
                <mxCell id="39" value="Flashwrite&lt;br&gt;process" style="rounded=0;whiteSpace=wrap;html=1;flipV=1;flipH=0;fontSize=14;" vertex="1" parent="1">
                    <mxGeometry x="494" y="297" width="120" height="60" as="geometry"/>
                </mxCell>
                <mxCell id="49" style="edgeStyle=none;html=1;exitX=0.5;exitY=1;exitDx=0;exitDy=0;entryX=0.5;entryY=0;entryDx=0;entryDy=0;fontSize=14;" edge="1" parent="1" source="41" target="42">
                    <mxGeometry relative="1" as="geometry"/>
                </mxCell>
                <mxCell id="41" value="PC notify user about success" style="rounded=0;whiteSpace=wrap;html=1;flipV=1;flipH=0;fontSize=14;dashed=1;" vertex="1" parent="1">
                    <mxGeometry x="494" y="381" width="120" height="60" as="geometry"/>
                </mxCell>
                <mxCell id="42" value="Success Process" style="rounded=1;whiteSpace=wrap;html=1;flipV=0;flipH=1;fontSize=14;" vertex="1" parent="1">
                    <mxGeometry x="494" y="465" width="120" height="60" as="geometry"/>
                </mxCell>
            </root>
        </mxGraphModel>
    </diagram>
</mxfile>